<svg xmlns="http://www.w3.org/2000/svg" viewBox="0 0 32 40" x="0px" y="0px"><path d="M16,2c-7.72,0-14,6.28-14,14s6.28,14,14,14,14-6.28,14-14S23.72,2,16,2Zm-2.7,21.75c-.18,.35-.53,.56-.9,.56-.15,0-.3-.03-.44-.1-2.19-1.08-3.88-3.03-4.65-5.33-.17-.53,.11-1.09,.63-1.27,.53-.17,1.09,.11,1.27,.64,.6,1.8,1.92,3.32,3.63,4.16,.5,.25,.7,.85,.46,1.34Zm9.88-11.76c-.18,.13-.39,.2-.59,.2-.31,0-.62-.15-.81-.41-.34-.47-.74-.89-1.18-1.27v5.48c0,2.54-2.06,4.6-4.6,4.6s-4.6-2.06-4.6-4.6,2.06-4.6,4.6-4.6c.97,0,1.86,.3,2.6,.81v-3.46c0-.1,.01-.19,.05-.28,.01-.06,.03-.12,.06-.17,0-.02,.01-.03,.02-.05,.01-.02,.02-.03,.03-.05,0-.01,.01-.02,.02-.03,.27-.43,.82-.6,1.29-.37,1.31,.65,2.46,1.62,3.32,2.81,.33,.44,.23,1.07-.21,1.39Z"/><path d="M16,13.39c-1.43,0-2.6,1.17-2.6,2.6,0,1.44,1.17,2.6,2.6,2.6s2.6-1.16,2.6-2.6c0-1.43-1.17-2.6-2.6-2.6Z"/><text x="0" y="47" fill="#000000" font-size="5px" font-weight="bold" font-family="'Helvetica Neue', Helvetica, Arial-Unicode, Arial, Sans-serif">Created by Kiki Rizky</text><text x="0" y="52" fill="#000000" font-size="5px" font-weight="bold" font-family="'Helvetica Neue', Helvetica, Arial-Unicode, Arial, Sans-serif">from the Noun Project</text></svg>